<?xml version="1.0" encoding="utf-8"?>
<!-- Generator: Adobe Illustrator 22.1.0, SVG Export Plug-In . SVG Version: 6.00 Build 0)  -->
<svg version="1.1" id="Camada_1" xmlns="http://www.w3.org/2000/svg" xmlns:xlink="http://www.w3.org/1999/xlink" x="0px" y="0px"
	 viewBox="0 0 300 300" style="enable-background:new 0 0 300 300;" xml:space="preserve">
<style type="text/css">
	.st0{fill:#C13B0C;}
</style>
<path class="st0" d="M150,39.5c-82.8,0-150,44.8-150,100C0,171.4,42.3,212,50.7,212s29.9-60.5,42.9-61.9c15.4-1.7,41,48.7,31.6,63.2
	c-6.6,10.1-38.5,12.5-38.5,18.1s14.9,6.9,21.8,10.1c26.4,12,56.6,12,82.9,0c7-3.2,21.8-4.7,21.8-10.1s-31.9-8-38.5-18.1
	c-9.4-14.5,16.2-65,31.6-63.2c13,1.4,35.2,61.9,42.9,61.9s50.7-40.5,50.7-72.5C300,84.2,232.8,39.5,150,39.5z"/>
</svg>
