<svg id="Camada_1" data-name="Camada 1" xmlns="http://www.w3.org/2000/svg" viewBox="0 0 300 300"><defs><style>.cls-1{fill:#06ac1c;}.cls-2{fill:#02a023;}.cls-3{fill:#09b914;}.cls-4{fill:#0dc50d;}.cls-5{fill:#10d105;}.cls-6{fill:#fff;}.cls-7{fill:#bfd7dd;}.cls-8{fill:#80acb7;}.cls-9{fill:#4dd0e1;}.cls-10{fill:#f0f5f7;}</style></defs><title>icon-casa</title><polygon id="_Caminho_" data-name="&lt;Caminho&gt;" class="cls-1" points="40.1 104.02 40.1 234.97 127.75 285.57 127.75 154.62 40.1 104.02"/><polygon id="_Caminho_2" data-name="&lt;Caminho&gt;" class="cls-1" points="197.21 75.19 103.06 21 21.88 117.8 116.04 171.99 197.21 75.19"/><polygon id="_Caminho_3" data-name="&lt;Caminho&gt;" class="cls-2" points="278.38 78.3 184.23 24.11 103.06 21 197.21 75.19 278.38 78.3"/><polygon id="_Caminho_4" data-name="&lt;Caminho&gt;" class="cls-3" points="197.21 75.08 278.38 78.19 278.38 90.45 197.21 87.34 116.04 184.14 116.04 171.88 197.21 75.08"/><polygon id="_Caminho_5" data-name="&lt;Caminho&gt;" class="cls-4" points="21.88 117.7 21.88 129.95 116.04 184.14 116.04 171.88 21.88 117.7"/><polygon id="_Caminho_6" data-name="&lt;Caminho&gt;" class="cls-5" points="197.21 87.34 266.61 90 266.61 205.4 127.75 285.57 127.75 170.17 197.21 87.34"/><path id="_Caminho_composto_" data-name="&lt;Caminho composto&gt;" class="cls-6" d="M58.76,161,104,187.26v59.4l-45.2-26.29V161m-2.94-5.11v66.21l51.09,29.7V185.56l-51.09-29.7Z"/><g id="_Grupo_" data-name="&lt;Grupo&gt;"><polygon id="_Caminho_7" data-name="&lt;Caminho&gt;" class="cls-7" points="58.77 220.37 103.96 246.66 103.96 243.26 61.71 218.67 58.77 220.37"/></g><g id="_Grupo_2" data-name="&lt;Grupo&gt;"><polygon id="_Caminho_8" data-name="&lt;Caminho&gt;" class="cls-8" points="58.77 160.97 58.77 220.37 61.71 218.67 61.71 162.67 58.77 160.97"/></g><polygon id="_Caminho_9" data-name="&lt;Caminho&gt;" class="cls-9" points="61.71 162.67 61.71 218.67 103.96 243.26 103.96 187.26 61.71 162.67"/><g id="_Grupo_3" data-name="&lt;Grupo&gt;"><polygon id="_Caminho_10" data-name="&lt;Caminho&gt;" class="cls-7" points="103.96 209.39 61.71 184.8 59.94 185.81 103.96 211.43 103.96 209.39"/><polygon id="_Caminho_11" data-name="&lt;Caminho&gt;" class="cls-10" points="103.96 211.43 59.94 185.81 59.94 187.63 103.96 213.24 103.96 211.43"/></g><g id="_Grupo_4" data-name="&lt;Grupo&gt;"><path id="_Caminho_composto_2" data-name="&lt;Caminho composto&gt;" class="cls-10" d="M183.05,171.94v56.13l-25.73,14.86V186.8l25.73-14.86m3.34-5.77L154,184.88V248.7l32.4-18.7V166.17Z"/><g id="_Grupo_5" data-name="&lt;Grupo&gt;"><polygon id="_Caminho_12" data-name="&lt;Caminho&gt;" class="cls-7" points="183.05 228.07 157.32 242.93 157.32 239.08 179.72 226.15 183.05 228.07"/></g><g id="_Grupo_6" data-name="&lt;Grupo&gt;"><polygon id="_Caminho_13" data-name="&lt;Caminho&gt;" class="cls-8" points="183.05 171.94 183.05 228.07 179.72 226.15 179.72 173.87 183.05 171.94"/></g><polygon id="_Caminho_14" data-name="&lt;Caminho&gt;" class="cls-9" points="179.72 173.87 179.72 226.15 157.32 239.08 157.32 186.8 179.72 173.87"/><g id="_Grupo_7" data-name="&lt;Grupo&gt;"><polygon id="_Caminho_15" data-name="&lt;Caminho&gt;" class="cls-7" points="157.32 211.82 179.72 198.88 181.73 200.02 157.32 214.12 157.32 211.82"/><polygon id="_Caminho_16" data-name="&lt;Caminho&gt;" class="cls-10" points="157.32 214.12 181.73 200.02 181.73 202.08 157.32 216.17 157.32 214.12"/></g></g><g id="_Grupo_8" data-name="&lt;Grupo&gt;"><path id="_Caminho_composto_3" data-name="&lt;Caminho composto&gt;" class="cls-10" d="M249.05,135.94v56.13l-25.73,14.86V150.8l25.73-14.86m3.34-5.77L220,148.88V212.7l32.4-18.7V130.17Z"/><g id="_Grupo_9" data-name="&lt;Grupo&gt;"><polygon id="_Caminho_17" data-name="&lt;Caminho&gt;" class="cls-7" points="249.05 192.07 223.32 206.93 223.32 203.08 245.72 190.15 249.05 192.07"/></g><g id="_Grupo_10" data-name="&lt;Grupo&gt;"><polygon id="_Caminho_18" data-name="&lt;Caminho&gt;" class="cls-8" points="249.05 135.94 249.05 192.07 245.72 190.15 245.72 137.87 249.05 135.94"/></g><polygon id="_Caminho_19" data-name="&lt;Caminho&gt;" class="cls-9" points="245.72 137.87 245.72 190.15 223.32 203.08 223.32 150.8 245.72 137.87"/><g id="_Grupo_11" data-name="&lt;Grupo&gt;"><polygon id="_Caminho_20" data-name="&lt;Caminho&gt;" class="cls-7" points="223.32 175.82 245.72 162.88 247.73 164.02 223.32 178.12 223.32 175.82"/><polygon id="_Caminho_21" data-name="&lt;Caminho&gt;" class="cls-10" points="223.32 178.12 247.73 164.02 247.73 166.08 223.32 180.17 223.32 178.12"/></g></g></svg>