<?xml version="1.0" encoding="utf-8"?>
<!-- Generator: Adobe Illustrator 22.1.0, SVG Export Plug-In . SVG Version: 6.00 Build 0)  -->
<svg version="1.1" id="Capa_1" xmlns="http://www.w3.org/2000/svg" xmlns:xlink="http://www.w3.org/1999/xlink" x="0px" y="0px"
	 viewBox="0 0 387.5 387.5" style="enable-background:new 0 0 387.5 387.5;" xml:space="preserve">
<style type="text/css">
	.st0{fill:#FFFFFF;}
</style>
<g>
	<path class="st0" d="M326.4,104c0.9-3.6,1.3-7.2,1.3-10.8V81.6c0-23.2-17.3-44.3-48.7-59.6C250,7.8,211.5,0,170.7,0
		S91.5,7.8,62.4,22C31,37.3,13.7,58.4,13.7,81.6v11.6c0,22.8,16.8,43.7,47.4,59c-0.8,3.5-1.4,7.9-1.4,10.8v2.1
		c-29.7,15.2-46,35.8-46,58.3V235c0,15.6,7.9,30.3,22.6,42.9c-2,5.3-3,10.8-3,16.5V306c0,23.2,17.3,44.3,48.7,59.6
		c29.1,14.2,67.6,22,108.3,22s79.2-7.8,108.3-22c31.4-15.3,48.7-36.5,48.7-59.6v-11.6c0-15.6-7.9-30.3-22.6-42.9
		c2-5.3,3-10.8,3-16.5v-2.1c29.7-15.2,46-35.8,46-58.3V163C373.7,140.1,356.9,119.2,326.4,104z M35.7,71.8
		C40.2,60.2,52.6,49,71.2,40c26.4-12.9,61.8-20,99.6-20s73.1,7.1,99.6,20c18.6,9,30.9,20.3,35.5,31.8
		c-16.1,27.9-71.9,48.3-135.1,48.3S51.7,99.7,35.7,71.8z M35.7,213.5c3.7-9.4,12.6-18.6,25.8-26.5c5.1,18.2,21.3,34.7,47,47.2
		c29.1,14.2,67.6,22,108.3,22c4,0,7.9-0.1,11.9-0.2c-17.8,3.8-37.4,6-57.9,6C107.6,261.8,51.7,241.4,35.7,213.5z M325.4,284.5
		c-16.1,27.9-71.9,48.3-135.1,48.3c-54.9,0-104.2-15.4-126.7-37.7c29,13.8,66.9,21.4,107.1,21.4c40.8,0,79.2-7.8,108.3-22
		c15.1-7.3,26.9-16,35.1-25.7C319.5,273.9,323.3,279.1,325.4,284.5z M216.7,201.4c-55.2,0-104.7-15.5-127.1-38.1
		c24.2,7.4,52,11.4,81.1,11.4c40.8,0,79.2-7.8,108.3-22c17.6-8.6,30.8-19,39-30.6c17.6,8.9,29.4,19.8,33.8,31
		C335.7,181.1,279.9,201.4,216.7,201.4z"/>
</g>
</svg>
